<?xml version="1.0" encoding="utf-8"?>
<!-- Generator: Adobe Illustrator 17.0.0, SVG Export Plug-In . SVG Version: 6.00 Build 0)  -->
<!DOCTYPE svg PUBLIC "-//W3C//DTD SVG 1.1//EN" "http://www.w3.org/Graphics/SVG/1.1/DTD/svg11.dtd">
<svg version="1.1" id="Layer_1" xmlns="http://www.w3.org/2000/svg" xmlns:xlink="http://www.w3.org/1999/xlink" x="0px" y="0px"
	 width="708.25px" height="99.512px" viewBox="0 0 708.25 99.512" enable-background="new 0 0 708.25 99.512" xml:space="preserve">
<g>
	<path fill="#B91F1E" d="M7.147,42.166c6.098,7.443,16.486,12.345,28.279,12.345c2.217,0,4.385-0.173,6.483-0.503
		c1.802-0.284,3.186-1.539,3.657-3.316c0.47-1.778-0.108-3.564-1.527-4.716c-5.834-4.735-9.567-11.996-9.567-20.139
		C34.472,11.568,45.937,0,60.078,0c11.297,0,20.878,9.855,24.28,19.118l9.077-3.895c1.083-0.466,2.229-0.355,3.205,0.305
		c0.977,0.662,1.512,1.69,1.497,2.878c-0.046,3.508-1.486,6.677-3.786,8.967c0.692,0.107,1.34,0.41,1.87,0.948
		c0.853,0.869,1.173,2.028,0.884,3.216c-0.796,3.269-5.606,5.784-11.421,5.784c-1.022,0-2.007-0.084-2.95-0.231
		c-0.826,1.201-1.767,2.234-2.75,3.263c-0.549,0.573-0.753,1.326-0.57,2.103c0.182,0.777,0.703,1.356,1.45,1.621
		c24.324,8.588,33.35,55.434-26.658,55.434C31.087,99.512,0,88.97,0,60.828C0,53.643,2.706,47.095,7.147,42.166z M72.867,17.323
		c1.883,2.64,4.407,4.059,5.637,3.165c1.23-0.893,0.702-3.758-1.182-6.4c-1.883-2.642-4.406-4.059-5.637-3.165
		C70.456,11.815,70.984,14.682,72.867,17.323z"/>
	<g>
		<path fill="#B91F1E" d="M138.322,23.622l15.179,0.082c7.931,0,14.905,2.859,20.923,8.574c6.016,5.717,9.025,12.746,9.025,21.087
			c0,8.342-2.941,15.495-8.82,21.456c-5.881,5.963-13.005,8.943-21.374,8.943H138.24c-3.337,0-5.416-0.684-6.236-2.051
			c-0.656-1.149-0.985-2.899-0.985-5.252V30.842c0-1.313,0.041-2.27,0.124-2.872c0.082-0.601,0.341-1.312,0.779-2.133
			C132.687,24.36,134.82,23.622,138.322,23.622z M164.167,64.852c3.172-2.926,4.759-6.605,4.759-11.036s-1.546-8.136-4.636-11.118
			c-3.091-2.981-6.715-4.472-10.872-4.472h-7.876v31.015h7.958C157.439,69.241,160.994,67.778,164.167,64.852z"/>
		<path fill="#B91F1E" d="M208.391,83.682c-5.525,0-10.106-2.092-13.743-6.276c-3.639-4.185-5.457-9.285-5.457-15.303V47.744
			c0-1.312,0.041-2.269,0.124-2.872c0.082-0.602,0.314-1.313,0.697-2.133c0.765-1.477,2.898-2.215,6.4-2.215
			c3.828,0,6.071,1.04,6.728,3.118c0.328,0.876,0.492,2.271,0.492,4.185v14.358c0,2.244,0.642,3.994,1.928,5.251
			c1.284,1.26,3.007,1.888,5.169,1.888c2.16,0,3.91-0.656,5.251-1.97c1.34-1.312,2.01-3.035,2.01-5.169V47.662
			c0-1.258,0.041-2.201,0.123-2.831c0.082-0.628,0.341-1.354,0.78-2.174c0.71-1.422,2.816-2.133,6.317-2.133
			c3.446,0,5.551,0.738,6.318,2.215c0.382,0.82,0.615,1.546,0.697,2.174c0.082,0.629,0.123,1.573,0.123,2.831v29.045
			c0,1.204-0.041,2.121-0.123,2.749c-0.082,0.63-0.342,1.327-0.779,2.093c-0.82,1.423-2.927,2.133-6.318,2.133
			c-3.337,0-5.388-0.656-6.153-1.969c-0.548-0.93-0.821-2.052-0.821-3.364c-0.219,0.383-0.711,0.931-1.477,1.641
			c-0.767,0.712-1.505,1.312-2.215,1.806C212.603,83.08,210.578,83.682,208.391,83.682z"/>
		<path fill="#B91F1E" d="M252.86,62.226c0,2.326,0.766,4.131,2.297,5.415c1.531,1.286,3.159,1.929,4.882,1.929
			c1.723,0,3.335-0.505,4.841-1.518c1.504-1.012,2.72-1.519,3.651-1.519c1.641,0,3.637,1.45,5.99,4.349
			c1.258,1.587,1.887,3.009,1.887,4.267c0,2.079-1.505,4.021-4.513,5.825c-3.118,2.188-6.947,3.282-11.487,3.282
			c-5.087,0-9.983-1.832-14.687-5.497c-2.243-1.75-4.075-4.089-5.497-7.016c-1.423-2.925-2.133-6.153-2.133-9.682
			c0-3.528,0.71-6.728,2.133-9.6c1.422-2.872,3.254-5.182,5.497-6.933c4.54-3.61,9.381-5.415,14.523-5.415
			c2.078,0,4.102,0.287,6.071,0.861s3.418,1.136,4.349,1.682l1.313,0.82c0.984,0.656,1.75,1.177,2.297,1.559
			c1.422,1.095,2.133,2.338,2.133,3.733c0,1.395-0.574,2.968-1.723,4.718c-1.969,3.009-3.856,4.513-5.661,4.513
			c-1.04,0-2.517-0.602-4.431-1.805c-0.985-0.93-2.394-1.395-4.226-1.395c-1.833,0-3.542,0.656-5.128,1.969
			C253.653,58.083,252.86,59.901,252.86,62.226z"/>
		<path fill="#B91F1E" d="M307.587,62.185l10.912,9.025c1.367,1.148,2.229,2.024,2.585,2.626c0.355,0.603,0.533,1.177,0.533,1.723
			c0,1.312-0.849,3.091-2.543,5.333c-1.86,2.298-3.501,3.446-4.923,3.446c-1.204,0-2.872-0.792-5.005-2.379l-0.82-0.575
			c-1.259-1.038-3.2-2.857-5.826-5.456c-2.625-2.597-4.623-4.443-5.989-5.538v6.317c0,1.26-0.041,2.203-0.123,2.831
			c-0.082,0.63-0.342,1.354-0.78,2.175c-0.711,1.423-2.818,2.133-6.317,2.133c-3.446,0-5.553-0.738-6.318-2.215
			c-0.383-0.821-0.615-1.545-0.697-2.175c-0.083-0.628-0.124-1.571-0.124-2.831V27.478c0-1.258,0.041-2.201,0.124-2.831
			c0.082-0.628,0.314-1.354,0.697-2.174c0.765-1.477,2.898-2.215,6.4-2.215c2.625,0,4.484,0.465,5.579,1.395
			c0.93,0.767,1.422,1.969,1.477,3.61c0.054,0.492,0.082,1.259,0.082,2.297v26.01c0.984-0.821,2.474-2.215,4.472-4.185
			c1.996-1.969,3.487-3.364,4.472-4.185l0.984-0.656c1.914-1.477,3.555-2.215,4.923-2.215c1.367,0,2.94,1.107,4.718,3.323
			c1.777,2.215,2.667,3.953,2.667,5.21c0,1.259-1.013,2.736-3.036,4.431L307.587,62.185z"/>
		<path fill="#B91F1E" d="M332.365,75.395c-1.423-1.75-2.133-3.323-2.133-4.718s1.176-3.241,3.528-5.538
			c1.367-1.312,2.817-1.97,4.349-1.97c1.531,0,3.664,1.368,6.4,4.103c0.766,0.931,1.859,1.819,3.282,2.667
			c1.421,0.849,2.734,1.271,3.938,1.271c5.087,0,7.631-2.078,7.631-6.235c0-1.258-0.698-2.311-2.092-3.159
			c-1.395-0.848-3.132-1.462-5.21-1.846c-2.08-0.382-4.322-0.997-6.728-1.846c-2.408-0.848-4.65-1.846-6.728-2.995
			c-2.08-1.148-3.815-2.966-5.21-5.456c-1.395-2.488-2.092-5.483-2.092-8.984c0-4.812,1.791-9.011,5.375-12.595
			c3.582-3.582,8.464-5.374,14.646-5.374c3.282,0,6.277,0.424,8.984,1.272c2.708,0.849,4.581,1.71,5.621,2.584l2.051,1.559
			c1.695,1.587,2.543,2.927,2.543,4.021c0,1.095-0.657,2.599-1.969,4.513c-1.86,2.736-3.774,4.103-5.744,4.103
			c-1.148,0-2.572-0.546-4.267-1.641c-0.164-0.109-0.479-0.382-0.943-0.82c-0.465-0.437-0.89-0.792-1.272-1.067
			c-1.148-0.71-2.612-1.066-4.39-1.066c-1.778,0-3.255,0.424-4.43,1.272c-1.177,0.849-1.764,2.024-1.764,3.528
			c0,1.505,0.697,2.722,2.092,3.651c1.395,0.931,3.13,1.559,5.21,1.887c2.078,0.328,4.349,0.834,6.81,1.518
			c2.461,0.685,4.73,1.518,6.81,2.502c2.078,0.985,3.815,2.695,5.21,5.128c1.395,2.435,2.092,5.429,2.092,8.984
			s-0.711,6.687-2.133,9.395c-1.423,2.707-3.282,4.8-5.579,6.276c-4.431,2.9-9.163,4.349-14.194,4.349
			c-2.572,0-5.005-0.315-7.303-0.943s-4.157-1.407-5.579-2.339c-2.9-1.749-4.923-3.445-6.072-5.087L332.365,75.395z"/>
		<path fill="#B91F1E" d="M380.773,23.622h45.619c1.75,0,3.036,0.206,3.856,0.616s1.367,1.054,1.641,1.928
			c0.273,0.875,0.41,2.024,0.41,3.446c0,1.423-0.137,2.558-0.41,3.405c-0.274,0.849-0.739,1.436-1.395,1.764
			c-0.984,0.493-2.379,0.739-4.185,0.739h-15.671v41.27c0,1.26-0.041,2.188-0.123,2.79c-0.082,0.603-0.328,1.3-0.738,2.093
			s-1.136,1.354-2.174,1.682c-1.04,0.328-2.408,0.492-4.103,0.492c-1.696,0-3.05-0.164-4.062-0.492
			c-1.013-0.328-1.723-0.889-2.133-1.682c-0.41-0.793-0.656-1.504-0.738-2.134c-0.082-0.628-0.123-1.571-0.123-2.831V35.519h-15.753
			c-1.751,0-3.036-0.205-3.856-0.616c-0.82-0.41-1.368-1.052-1.641-1.928c-0.274-0.875-0.41-2.023-0.41-3.446
			c0-1.422,0.136-2.556,0.41-3.405c0.273-0.848,0.738-1.436,1.395-1.764C377.574,23.868,378.968,23.622,380.773,23.622z"/>
		<path fill="#B91F1E" d="M457.57,27.97l22.153,45.784c0.929,1.86,1.395,3.255,1.395,4.185c0,1.969-1.587,3.747-4.759,5.333
			c-1.86,0.93-3.323,1.395-4.39,1.395c-1.066,0-1.942-0.246-2.625-0.738c-0.685-0.492-1.177-1.012-1.477-1.559
			c-0.301-0.547-0.726-1.367-1.271-2.462l-4.267-8.861h-22.728l-4.267,8.861c-0.547,1.095-0.972,1.888-1.272,2.38
			c-0.301,0.492-0.793,0.998-1.477,1.518c-0.685,0.52-1.559,0.779-2.625,0.779c-1.067,0-2.531-0.465-4.39-1.395
			c-3.173-1.531-4.759-3.282-4.759-5.251c0-0.93,0.464-2.324,1.395-4.185l22.153-45.866c0.601-1.257,1.518-2.269,2.749-3.036
			c1.231-0.765,2.529-1.149,3.897-1.149C453.96,23.704,456.147,25.127,457.57,27.97z M450.924,47.662l-5.416,11.241h10.913
			L450.924,47.662z"/>
		<path fill="#B91F1E" d="M532.481,73.672c0.82,1.969,1.23,3.392,1.23,4.267c0,2.079-1.696,3.829-5.087,5.251
			c-1.751,0.766-3.159,1.148-4.226,1.148c-1.066,0-1.942-0.26-2.625-0.779c-0.685-0.52-1.19-1.053-1.518-1.6
			c-0.547-1.039-2.681-5.99-6.399-14.852l-2.544,0.164h-10.338v9.271c0,1.26-0.041,2.203-0.123,2.831
			c-0.082,0.63-0.342,1.354-0.78,2.174c-0.767,1.478-2.9,2.216-6.399,2.216c-3.83,0-6.072-1.012-6.728-3.036
			c-0.328-0.929-0.493-2.351-0.493-4.267V30.924c0-1.258,0.041-2.201,0.124-2.831c0.082-0.628,0.341-1.354,0.779-2.174
			c0.765-1.477,2.898-2.215,6.4-2.215h17.722c4.813,0,9.49,1.751,14.031,5.251c2.187,1.696,3.992,3.993,5.415,6.892
			c1.422,2.9,2.133,6.126,2.133,9.682c0,6.182-2.051,11.269-6.154,15.261C528.104,63.689,529.964,67.983,532.481,73.672z
			 M500.974,52.749h10.502c1.586,0,3.172-0.601,4.759-1.805c1.585-1.202,2.379-3.007,2.379-5.415c0-2.406-0.794-4.226-2.379-5.456
			c-1.587-1.231-3.229-1.846-4.923-1.846h-10.338V52.749z"/>
		<path fill="#B91F1E" d="M539.701,23.622h45.619c1.75,0,3.036,0.206,3.856,0.616s1.367,1.054,1.641,1.928
			c0.273,0.875,0.41,2.024,0.41,3.446c0,1.423-0.137,2.558-0.41,3.405c-0.274,0.849-0.739,1.436-1.395,1.764
			c-0.984,0.493-2.379,0.739-4.185,0.739h-15.671v41.27c0,1.26-0.041,2.188-0.123,2.79c-0.082,0.603-0.328,1.3-0.738,2.093
			s-1.136,1.354-2.174,1.682c-1.04,0.328-2.408,0.492-4.103,0.492c-1.696,0-3.05-0.164-4.062-0.492
			c-1.013-0.328-1.723-0.889-2.133-1.682c-0.41-0.793-0.656-1.504-0.738-2.134c-0.082-0.628-0.123-1.571-0.123-2.831V35.519h-15.753
			c-1.751,0-3.036-0.205-3.856-0.616c-0.82-0.41-1.368-1.052-1.641-1.928c-0.274-0.875-0.41-2.023-0.41-3.446
			c0-1.422,0.136-2.556,0.41-3.405c0.273-0.848,0.738-1.436,1.395-1.764C536.501,23.868,537.896,23.622,539.701,23.622z"/>
		<path fill="#B91F1E" d="M611.083,69.323h25.271c1.258,0,2.201,0.041,2.831,0.123c0.628,0.082,1.354,0.342,2.174,0.779
			c1.477,0.767,2.215,2.9,2.215,6.399c0,3.83-1.013,6.072-3.036,6.729c-0.931,0.328-2.353,0.492-4.267,0.492H603.78
			c-3.83,0-6.072-1.038-6.728-3.118c-0.328-0.874-0.493-2.269-0.493-4.185V30.924c0-2.79,0.52-4.69,1.559-5.703
			c1.039-1.011,3.008-1.518,5.908-1.518h32.327c1.258,0,2.201,0.042,2.831,0.124c0.628,0.082,1.354,0.342,2.174,0.779
			c1.477,0.767,2.215,2.9,2.215,6.4c0,3.829-1.013,6.071-3.036,6.728c-0.931,0.328-2.353,0.492-4.267,0.492h-25.189v8.287h16.246
			c1.258,0,2.201,0.041,2.831,0.123c0.628,0.082,1.354,0.342,2.174,0.779c1.477,0.767,2.215,2.9,2.215,6.4
			c0,3.829-1.04,6.071-3.118,6.728c-0.931,0.328-2.353,0.492-4.267,0.492h-16.082V69.323z"/>
		<path fill="#B91F1E" d="M695.756,73.672c0.82,1.969,1.23,3.392,1.23,4.267c0,2.079-1.696,3.829-5.087,5.251
			c-1.751,0.766-3.159,1.148-4.226,1.148c-1.066,0-1.942-0.26-2.625-0.779c-0.685-0.52-1.19-1.053-1.518-1.6
			c-0.547-1.039-2.681-5.99-6.399-14.852l-2.544,0.164h-10.338v9.271c0,1.26-0.041,2.203-0.123,2.831
			c-0.082,0.63-0.342,1.354-0.78,2.174c-0.767,1.478-2.9,2.216-6.399,2.216c-3.83,0-6.072-1.012-6.728-3.036
			c-0.328-0.929-0.493-2.351-0.493-4.267V30.924c0-1.258,0.041-2.201,0.124-2.831c0.082-0.628,0.341-1.354,0.779-2.174
			c0.765-1.477,2.898-2.215,6.4-2.215h17.722c4.813,0,9.49,1.751,14.031,5.251c2.187,1.696,3.992,3.993,5.415,6.892
			c1.422,2.9,2.133,6.126,2.133,9.682c0,6.182-2.051,11.269-6.154,15.261C691.379,63.689,693.239,67.983,695.756,73.672z
			 M664.249,52.749h10.502c1.586,0,3.172-0.601,4.759-1.805c1.585-1.202,2.379-3.007,2.379-5.415c0-2.406-0.794-4.226-2.379-5.456
			c-1.587-1.231-3.229-1.846-4.923-1.846h-10.338V52.749z"/>
	</g>
</g>
</svg>
