<?xml version="1.0" encoding="utf-8"?>
<!-- Generator: Adobe Illustrator 17.0.0, SVG Export Plug-In . SVG Version: 6.00 Build 0)  -->
<!DOCTYPE svg PUBLIC "-//W3C//DTD SVG 1.1//EN" "http://www.w3.org/Graphics/SVG/1.1/DTD/svg11.dtd">
<svg version="1.1" id="Layer_1" xmlns="http://www.w3.org/2000/svg" xmlns:xlink="http://www.w3.org/1999/xlink" x="0px" y="0px"
	 width="3840px" height="848.296px" viewBox="-1666.606 -1023.134 3840 848.296"
	 enable-background="new -1666.606 -1023.134 3840 848.296" xml:space="preserve">
<g>
	<path fill="#F59E0B" d="M-1581.62-659.074c46.111,56.282,124.662,93.349,213.837,93.349c16.764,0,33.158-1.308,49.022-3.804
		c13.626-2.148,24.092-11.637,27.653-25.075c3.554-13.445-0.817-26.95-11.547-35.661c-44.115-35.805-72.343-90.71-72.343-152.285
		c0-107.898,86.695-195.371,193.624-195.371c85.424,0,157.873,74.52,183.598,144.564l68.637-29.453
		c8.189-3.524,16.855-2.684,24.235,2.306c7.388,5.006,11.433,12.779,11.32,21.763c-0.348,26.526-11.237,50.489-28.629,67.806
		c5.233,0.809,10.133,3.1,14.14,7.168c6.45,6.571,8.87,15.335,6.685,24.318c-6.019,24.719-42.391,43.737-86.362,43.737
		c-7.728,0-15.176-0.635-22.307-1.747c-6.246,9.082-13.362,16.893-20.795,24.674c-4.151,4.333-5.694,10.027-4.31,15.902
		c1.376,5.875,5.316,10.254,10.964,12.258c183.93,64.94,252.182,419.174-201.579,419.174
		c-174.818,0.008-409.888-79.708-409.888-292.508C-1635.664-572.289-1615.202-621.803-1581.62-659.074z M-1084.667-846.922
		c14.239,19.963,33.324,30.693,42.625,23.933c9.301-6.753,5.308-28.417-8.938-48.395c-14.239-19.978-33.317-30.693-42.625-23.933
		C-1102.898-888.571-1098.906-866.899-1084.667-846.922z"/>
	<g>
		<path fill="#F59E0B" d="M-589.718-799.298l114.771,0.62c59.972,0,112.707,21.611,158.213,64.834
			c45.491,43.23,68.244,96.381,68.244,159.453c0,63.079-22.239,117.161-66.694,162.236c-44.47,45.09-98.34,67.624-161.623,67.624
			h-113.531c-25.233,0-40.954-5.172-47.155-15.509c-4.961-8.688-7.448-21.921-7.448-39.714v-344.941
			c0-9.929,0.31-17.165,0.938-21.717c0.62-4.552,2.579-9.921,5.891-16.137C-632.328-793.718-616.199-799.298-589.718-799.298z
			 M-394.286-487.53c23.986-22.125,35.986-49.937,35.986-83.443c0-33.506-11.69-61.522-35.056-84.071
			c-23.373-22.534-50.777-33.816-82.21-33.816h-59.556v234.525h60.176C-445.161-454.342-418.279-465.405-394.286-487.53z"/>
		<path fill="#F59E0B" d="M-59.879-345.144c-41.778,0-76.418-15.819-103.92-47.457c-27.517-31.646-41.264-70.21-41.264-115.716
			v-108.578c0-9.921,0.31-17.157,0.938-21.71c0.62-4.552,2.374-9.928,5.271-16.137c5.785-11.169,21.914-16.749,48.395-16.749
			c28.946,0,45.907,7.857,50.875,23.57c2.48,6.624,3.72,17.173,3.72,31.646v108.571c0,16.968,4.855,30.201,14.579,39.706
			c9.709,9.528,22.738,14.276,39.086,14.276c16.333,0,29.566-4.96,39.706-14.897c10.133-9.921,15.199-22.95,15.199-39.086v-109.811
			c0-9.513,0.31-16.643,0.93-21.4s2.579-10.239,5.898-16.447c5.369-10.753,21.294-16.129,47.767-16.129
			c26.058,0,41.975,5.581,47.775,16.749c2.889,6.201,4.65,11.69,5.271,16.447c0.62,4.756,0.93,11.887,0.93,21.4v219.629
			c0,9.104-0.31,16.038-0.93,20.787c-0.62,4.764-2.586,10.034-5.891,15.827c-6.201,10.76-22.133,16.129-47.775,16.129
			c-25.233,0-40.742-4.96-46.527-14.889c-4.144-7.032-6.208-15.517-6.208-25.437c-1.656,2.896-5.376,7.04-11.169,12.409
			c-5.8,5.384-11.38,9.921-16.749,13.656C-28.029-349.696-43.341-345.144-59.879-345.144z"/>
		<path fill="#F59E0B" d="M276.381-507.387c0,17.588,5.792,31.237,17.369,40.946c11.577,9.724,23.887,14.586,36.916,14.586
			s25.218-3.819,36.606-11.479c11.373-7.652,20.568-11.486,27.608-11.486c12.409,0,27.502,10.964,45.294,32.886
			c9.513,12,14.269,22.753,14.269,32.266c0,15.721-11.38,30.405-34.126,44.047c-23.577,16.545-52.531,24.817-86.861,24.817
			c-38.466,0-75.488-13.853-111.058-41.567c-16.961-13.233-30.814-30.92-41.566-53.053c-10.76-22.118-16.129-46.527-16.129-73.212
			c0-26.67,5.369-50.875,16.129-72.592c10.753-21.71,24.606-39.185,41.566-52.425c34.33-27.298,70.936-40.946,109.818-40.946
			c15.713,0,31.018,2.17,45.907,6.511c14.889,4.34,25.846,8.59,32.886,12.719l9.928,6.201c7.441,4.96,13.233,8.9,17.369,11.796
			c10.753,8.28,16.129,17.679,16.129,28.228c0,10.549-4.34,22.443-13.029,35.676c-14.889,22.753-29.158,34.126-42.807,34.126
			c-7.864,0-19.033-4.552-33.506-13.656c-7.448-7.032-18.103-10.549-31.956-10.549c-13.861,0-26.783,4.96-38.776,14.889
			C282.378-538.715,276.381-524.968,276.381-507.387z"/>
		<path fill="#F59E0B" d="M690.209-507.697l82.513,68.244c10.337,8.681,16.855,15.305,19.547,19.857
			c2.685,4.56,4.03,8.9,4.03,13.029c0,9.921-6.42,23.373-19.229,40.326c-14.065,17.377-26.473,26.058-37.226,26.058
			c-9.104,0-21.717-5.989-37.846-17.989l-6.201-4.348c-9.52-7.849-24.197-21.604-44.054-41.257
			c-19.849-19.638-34.958-33.597-45.287-41.877v47.767c0,9.528-0.31,16.658-0.93,21.407c-0.62,4.764-2.586,10.238-5.898,16.447
			c-5.376,10.76-21.309,16.129-47.767,16.129c-26.058,0-41.99-5.581-47.775-16.749c-2.896-6.208-4.65-11.683-5.27-16.447
			c-0.628-4.749-0.938-11.879-0.938-21.407v-371.626c0-9.513,0.31-16.643,0.938-21.407c0.62-4.749,2.374-10.238,5.27-16.439
			c5.785-11.176,21.914-16.757,48.395-16.757c19.849,0,33.907,3.524,42.187,10.556c7.032,5.8,10.753,14.889,11.169,27.29
			c0.408,3.72,0.62,9.52,0.62,17.377v196.679c7.441-6.208,18.708-16.757,33.816-31.646c15.093-14.897,26.368-25.438,33.816-31.646
			l7.441-4.96c14.473-11.176,26.882-16.757,37.226-16.757c10.337,0,22.231,8.371,35.676,25.127
			c13.437,16.749,20.167,29.884,20.167,39.396c0,9.52-7.66,20.681-22.957,33.506L690.209-507.697z"/>
		<path fill="#F59E0B" d="M888.741-799.298l114.779,0.62c59.972,0,112.707,21.611,158.213,64.834
			c45.491,43.23,68.244,96.381,68.244,159.453c0,63.079-22.239,117.161-66.694,162.236c-44.47,45.09-98.34,67.624-161.623,67.624
			H888.121c-25.233,0-40.954-5.172-47.155-15.509c-4.961-8.688-7.448-21.921-7.448-39.714v-344.941
			c0-9.929,0.31-17.165,0.938-21.717c0.62-4.552,2.579-9.921,5.891-16.137C846.138-793.718,862.267-799.298,888.741-799.298z
			 M1084.18-487.53c23.986-22.125,35.986-49.937,35.986-83.443c0-33.506-11.69-61.522-35.056-84.071
			c-23.373-22.534-50.777-33.816-82.211-33.816h-59.556v234.525h60.176C1033.297-454.342,1060.187-465.405,1084.18-487.53z"/>
		<path fill="#F59E0B" d="M1504.828-766.412l167.514,346.196c7.025,14.065,10.548,24.613,10.548,31.646
			c0,14.889-12,28.334-35.986,40.326c-14.065,7.032-25.127,10.549-33.196,10.549c-8.061,0-14.685-1.86-19.849-5.581
			c-5.18-3.72-8.9-7.652-11.169-11.789c-2.276-4.136-5.49-10.337-9.611-18.617l-32.266-67.004h-171.862l-32.266,67.004
			c-4.136,8.28-7.35,14.276-9.619,17.997c-2.276,3.72-5.996,7.547-11.168,11.479c-5.18,3.932-11.789,5.891-19.849,5.891
			c-8.068,0-19.139-3.516-33.196-10.549c-23.993-11.577-35.986-24.817-35.986-39.706c0-7.032,3.509-17.573,10.548-31.646
			l167.514-346.816c4.545-9.513,11.479-17.165,20.787-22.957c9.308-5.785,19.123-8.681,29.468-8.681
			C1477.531-798.678,1494.068-787.918,1504.828-766.412z M1454.573-617.515l-40.954,85.001h82.521L1454.573-617.515z"/>
		<path fill="#F59E0B" d="M1902.534-804.259c61.212,0,114.363,22.133,159.446,66.384c45.075,44.266,67.624,99.171,67.624,164.724
			c0,65.56-21.513,121.395-64.524,167.506c-43.018,46.126-95.958,69.174-158.825,69.174c-62.875,0-116.329-22.746-160.375-68.244
			c-44.054-45.499-66.074-99.678-66.074-162.546c0-34.33,6.201-66.482,18.609-96.479c12.409-29.99,28.946-55.109,49.635-75.382
			c20.674-20.265,44.455-36.19,71.352-47.775C1846.276-798.466,1873.989-804.259,1902.534-804.259z M1789.616-570.361
			c0,36.818,11.887,66.686,35.676,89.644c23.781,22.957,50.353,34.436,79.723,34.436c29.362,0,55.835-11.169,79.413-33.506
			c23.577-22.337,35.366-52.319,35.366-89.954s-11.894-67.836-35.676-90.581c-23.789-22.746-50.361-34.126-79.723-34.126
			c-29.37,0-55.835,11.479-79.413,34.436C1801.405-637.055,1789.616-607.171,1789.616-570.361z"/>
	</g>
</g>
</svg>
